<svg xmlns="http://www.w3.org/2000/svg" width="15" height="14" viewBox="0 0 15 14" fill="none">
<g clip-path="url(#clip0_1545_11374)">
<path d="M7.5 10.02V11.03" stroke="#10723A" stroke-linecap="round" stroke-linejoin="round"/>
<path d="M7.5 5.01001V5.95001" stroke="#10723A" stroke-linecap="round" stroke-linejoin="round"/>
<path d="M7.5 13.49C11 13.49 13.5 12.25 13.5 9.48997C13.5 6.48997 12 4.48997 9 2.98997L10.18 1.46997C10.2399 1.37024 10.2725 1.25644 10.2743 1.14009C10.276 1.02374 10.247 0.908993 10.1902 0.807468C10.1333 0.705943 10.0506 0.621254 9.95051 0.561984C9.85038 0.502714 9.73636 0.47097 9.62 0.469971H5.38C5.26364 0.47097 5.14962 0.502714 5.04949 0.561984C4.94935 0.621254 4.86667 0.705943 4.80982 0.807468C4.75296 0.908993 4.72396 1.02374 4.72575 1.14009C4.72754 1.25644 4.76005 1.37024 4.82 1.46997L6 2.99997C3 4.50997 1.5 6.50997 1.5 9.50997C1.5 12.25 4 13.49 7.5 13.49Z" stroke="#10723A" stroke-linecap="round" stroke-linejoin="round"/>
<path d="M6.5 9.55986C6.62201 9.70469 6.77558 9.81965 6.94893 9.89592C7.12227 9.97219 7.31078 10.0077 7.5 9.99985C7.7892 10.0196 8.07479 9.92639 8.29671 9.7399C8.51864 9.55341 8.65961 9.28813 8.69 8.99985C8.65961 8.71157 8.51864 8.4463 8.29671 8.25981C8.07479 8.07332 7.7892 7.98014 7.5 7.99985C7.21079 8.01957 6.92521 7.92639 6.70328 7.7399C6.48136 7.55341 6.34038 7.28813 6.31 6.99985C6.33794 6.71056 6.47824 6.44377 6.70074 6.25679C6.92325 6.06981 7.21022 5.97756 7.5 5.99985C7.68588 5.98848 7.87198 6.01846 8.04489 6.08762C8.2178 6.15679 8.37323 6.26342 8.5 6.39985" stroke="#10723A" stroke-linecap="round" stroke-linejoin="round"/>
</g>
<defs>
<clipPath id="clip0_1545_11374">
<rect width="14" height="14" fill="white" transform="translate(0.5)"/>
</clipPath>
</defs>
</svg>