<svg xmlns="http://www.w3.org/2000/svg" width="15" height="15" viewBox="0 0 15 15" fill="none">
<g clip-path="url(#clip0_1545_13102)">
<path d="M6.84729 14.24C7.39957 14.24 7.84729 13.7923 7.84729 13.24C7.84729 12.6877 7.39957 12.24 6.84729 12.24C6.29501 12.24 5.84729 12.6877 5.84729 13.24C5.84729 13.7923 6.29501 14.24 6.84729 14.24Z" stroke="#10723A" stroke-linecap="round" stroke-linejoin="round"/>
<path d="M11.3473 14.24C11.8996 14.24 12.3473 13.7923 12.3473 13.24C12.3473 12.6877 11.8996 12.24 11.3473 12.24C10.795 12.24 10.3473 12.6877 10.3473 13.24C10.3473 13.7923 10.795 14.24 11.3473 14.24Z" stroke="#10723A" stroke-linecap="round" stroke-linejoin="round"/>
<path d="M9.22728 4.28007C9.07382 3.66361 8.77574 3.09256 8.35771 2.61421C7.93968 2.13586 7.41372 1.76395 6.82339 1.52927C6.23305 1.2946 5.5953 1.2039 4.96294 1.2647C4.33059 1.32549 3.7218 1.53603 3.18699 1.87888C2.65218 2.22173 2.20671 2.68704 1.88748 3.23627C1.56824 3.78551 1.38442 4.40289 1.35122 5.03729C1.31802 5.6717 1.4364 6.30489 1.69656 6.88445C1.95672 7.46401 2.35118 7.97326 2.84728 8.37007" stroke="#10723A" stroke-linecap="round" stroke-linejoin="round"/>
<path d="M5.34729 5.26001L6.84729 3.76001" stroke="#10723A" stroke-linecap="round" stroke-linejoin="round"/>
<path d="M7.34729 10.25V9.25H5.84729C5.31686 9.25 4.80815 9.46071 4.43308 9.83579C4.058 10.2109 3.84729 10.7196 3.84729 11.25V13.25" stroke="#10723A" stroke-linecap="round" stroke-linejoin="round"/>
<path d="M14.3473 13.24V8.23999C14.3473 7.97477 14.2419 7.72042 14.0544 7.53288C13.8669 7.34535 13.6125 7.23999 13.3473 7.23999H8.34729C8.08207 7.23999 7.82772 7.34535 7.64018 7.53288C7.45265 7.72042 7.34729 7.97477 7.34729 8.23999V10.24" stroke="#10723A" stroke-linecap="round" stroke-linejoin="round"/>
</g>
<defs>
<clipPath id="clip0_1545_13102">
<rect width="14" height="14" fill="white" transform="translate(0.84729 0.75)"/>
</clipPath>
</defs>
</svg>
